<?xml version="1.0" encoding="iso-8859-1"?>
<!-- Uploaded to: SVG Repo, www.svgrepo.com, Generator: SVG Repo Mixer Tools -->
<svg height="800px" width="800px" version="1.1" id="Layer_1" xmlns="http://www.w3.org/2000/svg" xmlns:xlink="http://www.w3.org/1999/xlink" 
	 viewBox="0 0 512 512" xml:space="preserve">
<circle style="fill:#F2CF61;" cx="256" cy="256" r="256"/>
<g>
	<path style="fill:#242424;" d="M132,384c-1.024,0-2.048-0.392-2.828-1.172c-1.564-1.564-1.564-4.092,0-5.656l248-248
		c1.564-1.564,4.092-1.564,5.656,0c1.564,1.564,1.564,4.092,0,5.656l-248,248C134.048,383.608,133.024,384,132,384z"/>
	<path style="fill:#242424;" d="M380,384c-1.024,0-2.048-0.392-2.828-1.172l-248-248c-1.564-1.564-1.564-4.092,0-5.656
		c1.564-1.564,4.092-1.564,5.656,0l248,248c1.564,1.564,1.564,4.092,0,5.656C382.048,383.608,381.024,384,380,384z"/>
	<path style="fill:#242424;" d="M380,108H132c-13.252,0-24,10.752-24,24v248c0,13.252,10.748,24,24,24h248c13.252,0,24-10.752,24-24
		V132C404,118.752,393.252,108,380,108z M256,388c-72.9,0-132-59.092-132-132s59.1-132,132-132s132,59.092,132,132
		S328.9,388,256,388z"/>
</g>
<path style="fill:#406A80;" d="M293.208,192.744c0,34.68-24.364,62.792-37.208,62.792s-3.512-29.728-13.952-62.792
	c-13.952-44.18,1.108-62.788,13.952-62.788S293.208,158.072,293.208,192.744z"/>
<path style="fill:#395F73;" d="M256,129.952c-1.648,0-3.328,0.312-4.98,0.944c13.308,4.992,32.888,30.748,32.888,61.844
	c0,30.236-18.516,55.46-31.768,61.432c0.996,0.888,2.252,1.356,3.868,1.356c12.844,0,37.208-28.116,37.208-62.788
	C293.208,158.072,268.844,129.952,256,129.952z"/>
<path style="fill:#406A80;" d="M218.792,318.328c0-34.68,24.364-62.792,37.208-62.792s3.512,29.732,13.952,62.792
	c13.956,44.184-1.108,62.788-13.952,62.788S218.792,353,218.792,318.328z"/>
<path style="fill:#395F73;" d="M269.952,318.328c-10.44-33.072-1.108-62.792-13.952-62.792c-1.648,0-3.484,0.476-5.436,1.356
	c6.944,6.164,0.956,32.524,10.084,61.436c12.168,38.524,2.272,57.584-8.972,61.844c1.528,0.58,3,0.944,4.324,0.944
	C268.844,381.116,283.908,362.512,269.952,318.328z"/>
<path style="fill:#406A80;" d="M193.208,218.328c34.676,0,62.792,24.364,62.792,37.208c0,12.84-29.728,3.512-62.792,13.952
	c-44.184,13.948-62.792-1.112-62.792-13.952C130.416,242.692,158.536,218.328,193.208,218.328z"/>
<path style="fill:#395F73;" d="M193.208,218.328c-1.568,0-3.108,0.1-4.652,0.196c32.496,2.04,58.14,24.752,58.14,37.012
	c0,12.84-29.728,3.512-62.792,13.952c-10.3,3.252-19.156,4.88-26.764,5.372c9.332,0.68,21.224-0.684,36.068-5.372
	c33.064-10.44,62.792-1.112,62.792-13.952C256,242.692,227.884,218.328,193.208,218.328z"/>
<path style="fill:#406A80;" d="M318.792,292.744c-34.676,0-62.792-24.368-62.792-37.208c0-12.844,29.728-3.512,62.792-13.948
	c44.184-13.952,62.792,1.104,62.792,13.948C381.584,268.376,353.464,292.744,318.792,292.744z"/>
<g>
	<path style="fill:#395F73;" d="M345.556,236.208c18.456,1.34,26.728,10.796,26.728,19.328c0,12.26-25.644,34.972-58.14,37.012
		c1.544,0.092,3.084,0.196,4.652,0.196c34.672,0,62.792-24.368,62.792-37.208C381.584,245.688,370.584,234.584,345.556,236.208z"/>
	<path style="fill:#395F73;" d="M280.992,234.704c-5.976-7.16-14.956-11.728-24.992-11.728c-2.956,0-5.804,0.428-8.528,1.172
		c0.428,6.444,0.584,12.256,0.94,17.056c-3.436-3.672-7.936-7.352-13.244-10.66c-7.16,5.976-11.728,14.956-11.728,24.992
		c0,2.956,0.432,5.804,1.172,8.528c6.444-0.424,12.26-0.584,17.056-0.932c-3.672,3.432-7.352,7.932-10.66,13.244
		c5.976,7.156,14.956,11.732,24.992,11.732c2.952,0,5.804-0.428,8.528-1.172c-0.424-6.444-0.584-12.26-0.94-17.06
		c3.436,3.676,7.936,7.356,13.248,10.656c7.16-5.972,11.732-14.948,11.732-24.988c0-2.952-0.432-5.804-1.172-8.532
		c-6.444,0.428-12.26,0.584-17.06,0.936C274,244.508,277.684,240.008,280.992,234.704z"/>
</g>
<circle style="fill:#242424;" cx="256" cy="255.536" r="23.256"/>
<g>
	<circle style="fill:#F5F5F5;" cx="380" cy="132" r="8"/>
	<circle style="fill:#F5F5F5;" cx="132" cy="132" r="8"/>
	<circle style="fill:#F5F5F5;" cx="380" cy="380" r="8"/>
	<circle style="fill:#F5F5F5;" cx="132" cy="380" r="8"/>
</g>
</svg>