<?xml version="1.0" encoding="utf-8"?>
<!-- Generator: Adobe Illustrator 24.1.1, SVG Export Plug-In . SVG Version: 6.00 Build 0)  -->
<svg version="1.1" id="Layer_1" xmlns="http://www.w3.org/2000/svg" xmlns:xlink="http://www.w3.org/1999/xlink" x="0px" y="0px"
	 viewBox="0 0 512 512" style="enable-background:new 0 0 512 512;" xml:space="preserve">
<g>
	<path d="M106.6,192V42.7h279.2l62.2,62.2v364.5l-128,0V512l170.7,0V87.2L403.5,0H64v192H106.6z M341.3,21.3v128h128v-42.7l-85.3,0
		V21.3H341.3L341.3,21.3z M149.3,234.7v-21.3c-47.1,0-85.3,38.2-85.3,85.3c0,47.1,38.2,85.3,85.3,85.3c47.1,0,85.3-38.2,85.3-85.3
		c0-47.1-38.2-85.3-85.3-85.3V234.7V256c23.6,0,42.6,19.1,42.7,42.7c0,23.6-19.1,42.6-42.7,42.7c-23.6,0-42.6-19.1-42.7-42.7
		c0-23.6,19.1-42.6,42.7-42.7V234.7z M42.7,490.7H64v-21.3c0-18.7,3.5-32.7,8.6-43.5c7.7-16.1,19.4-25.9,33.3-32.6
		c13.9-6.6,30-9.2,43.4-9.2c17.9-0.1,40.4,4.8,56.5,17.1c8.2,6.2,15,14,20.2,24.8c5.1,10.8,8.6,24.8,8.6,43.5h-192V490.7H64H42.7
		V512h234.7v-42.7c0-24-4.5-44.6-12.7-61.8c-12.3-25.9-32.6-43.1-53.7-52.9c-21.1-9.9-43-13.3-61.6-13.3
		c-24.7,0.1-55.6,5.9-82.1,25.6c-13.2,9.8-25,23.4-33.1,40.6c-8.2,17.2-12.8,37.9-12.7,61.8v21.3V512h21.3V490.7z"/>
</g>
</svg>
