<?xml version="1.0" encoding="iso-8859-1"?>
<!-- Uploaded to: SVG Repo, www.svgrepo.com, Generator: SVG Repo Mixer Tools -->
<svg fill="#000000" height="800px" width="800px" version="1.1" id="Layer_1" xmlns="http://www.w3.org/2000/svg" xmlns:xlink="http://www.w3.org/1999/xlink" 
	 viewBox="0 0 496 496" xml:space="preserve">
<g>
	<g>
		<g>
			<path d="M464,96V64h-32V32h-32V0H0v400h32v32h32v32h32v32h400V96H464z M16,384V16h368v368H16z M480,480H112v-16h352V320h-16v128
				H80v-16h352V232h-16v184H48v-16h352V48h16v168h16V80h16v224h16V112h16V480z"/>
			<path d="M128,32H32v96h96V32z M112,112H48V48h64V112z"/>
			<path d="M248,32h-96v96h96V32z M232,112h-64V48h64V112z"/>
			<path d="M272,128h96V32h-96V128z M288,48h64v64h-64V48z"/>
			<path d="M190.352,144L72,194.728V240h24v128h208V240h24v-45.272L209.64,144H190.352z M240,352h-80v-40c0-22.056,17.944-40,40-40
				c22.056,0,40,17.944,40,40V352z M288,352h-32v-40c0-30.88-25.12-56-56-56s-56,25.12-56,56v40h-32V240h176V352z M312,224h-8H96h-8
				v-18.728L193.64,160h12.72L312,205.272V224z"/>
		</g>
	</g>
</g>
</svg>