<?xml version="1.0" encoding="utf-8"?>
<!-- Svg Vector Icons : http://www.onlinewebfonts.com/icon -->
<!DOCTYPE svg PUBLIC "-//W3C//DTD SVG 1.1//EN" "http://www.w3.org/Graphics/SVG/1.1/DTD/svg11.dtd">
<svg version="1.1" xmlns="http://www.w3.org/2000/svg" xmlns:xlink="http://www.w3.org/1999/xlink" x="0px" y="0px" viewBox="0 0 1000 1000" enable-background="new 0 0 1000 1000" xml:space="preserve">
<metadata> Svg Vector Icons : http://www.onlinewebfonts.com/icon </metadata>
<g><path d="M285.4,100.6h166.5v55.5H285.4V100.6z"/><path d="M147.2,417.9c0,4.2,1.4,7.7,4.2,10.5c2.8,2.8,6.3,4.2,10.5,4.2h413.6c4.2,0,7.7-1.4,10.5-4.2c2.8-2.8,4.2-6.3,4.2-10.5v-27.2c0-3.5-1.4-6.6-4.2-9.4c-2.8-2.8-6.3-4.2-10.5-4.2H161.9c-4.2,0-7.7,1.4-10.5,4.2c-2.8,2.8-4.2,5.9-4.2,9.4V417.9z"/><path d="M202.7,211.6H231c3.5,0,7-0.9,10.5-2.6c3.5-1.7,6.4-3.8,8.9-6.3c2.4-2.4,4.4-5.2,5.8-8.4c1.4-3.1,2.1-6.8,2.1-11V73.4c0-7.7-2.6-14.3-7.9-19.9c-5.2-5.6-11.7-8.4-19.4-8.4h-28.3c-7.7,0-14.1,2.8-19.4,8.4c-5.2,5.6-7.9,12.2-7.9,19.9v109.9c0,7.7,2.6,14.3,7.9,19.9C188.6,208.8,195,211.6,202.7,211.6z"/><path d="M492.7,207.4c4.2,2.8,8.7,4.2,13.6,4.2h28.3c4.9,0,9.4-1.4,13.6-4.2c4.2-2.8,7.5-6.3,9.9-10.5c2.4-4.2,3.7-8.7,3.7-13.6V73.4c0-7.7-2.6-14.3-7.9-19.9c-5.2-5.6-11.7-8.4-19.4-8.4h-28.3c-7,0-13.3,2.8-18.8,8.4c-5.6,5.6-8.4,12.2-8.4,19.9v109.9c0,4.9,1.2,9.4,3.7,13.6C485.2,201.1,488.5,204.6,492.7,207.4z"/><path d="M940.3,397.3h-49.7v122.4l49.7,49.8V397.3z"/><path d="M672.8,186.2c0,68.8,0,245.2,0,245.2h55.5c0,0,0-209.9,0-284.8c0-25.9-20.4-46.1-56-46.1c-63,0-82.3,0-82.3,0s0,19.7,0,31.3c0,4.9,0,29.9,0,29.9h54.4C659.5,161.9,672.8,168.5,672.8,186.2z"/><path d="M442.8,721.1v233.8c0,0,410.2,0,472.6,0V721.1L672,562.2L442.8,721.1z M858.2,743.3v163.6c-47.2,0-357.2,0-357.2,0l0-163.6l173.3-120.1L858.2,743.3z"/><path d="M64.5,749.6c0-121.1,0-466.5,0-548.6c0-53.8,59.9-44.9,46.3-44.9c15.8,0,36.4,0,36.4,0v-55.5c0,0-57.5,0-89.3,0c-37.5,0-46.2,48.4-47.8,66.8c0,123,0,500.5,0,632.6c0.7,73.3,50.4,74.4,66.7,74.4c88,0,292.5,0,292.5,0v-55.5c0,0-165.9,0-240.6,0C92.6,819.6,64.5,816.8,64.5,749.6z"/><path d="M677,457.5l-308.8,205v70.4l305.1-205l316.8,205v-70.4L677,457.5z"/><path d="M153.5,598c-4.2,0-6.3,4.6-6.3,13.6v27.2c0,9.8,2.1,14.7,6.3,14.7h173.8c1.4,0,2.4-0.3,3.1-1c0.7-0.7,1.2-1.7,1.6-3.1c0.3-1.4,0.7-3,1-4.7c0.3-1.7,0.5-3.7,0.5-5.8v-27.2c0-9.1-2.1-13.6-6.3-13.6L153.5,598L153.5,598z"/><path d="M10,167.8c0-0.1,0-0.3,0-0.4c0-1,0-2.3,0-3.3C10,165.7,10,166.7,10,167.8z"/></g>
</svg>