<?xml version="1.0" encoding="utf-8"?>
<!-- Generator: Adobe Illustrator 24.1.1, SVG Export Plug-In . SVG Version: 6.00 Build 0)  -->
<svg version="1.1" id="Layer_1" xmlns="http://www.w3.org/2000/svg" xmlns:xlink="http://www.w3.org/1999/xlink" x="0px" y="0px"
	 viewBox="0 0 512 512" style="enable-background:new 0 0 512 512;" xml:space="preserve">
<style type="text/css">
	.st0{fill:#555555;}
</style>
<g>
	<path class="st0" d="M271.3,0c82.6,0,149.6,65.7,149.6,146.8c0,44.7-20.3,84.7-52.4,111.6c7,3.4,13.4,6.9,19.2,10.3
		c12.4,7.4,25.3,16.6,38.7,27.6c7.6,6.2,8.6,17.4,2.2,24.8c-6.4,7.5-17.7,8.4-25.3,2.2c-12.1-9.9-23.5-18.1-34.3-24.6
		c-9.8-5.8-21.9-11.9-36.5-18c-18.7,8.2-39.4,12.8-61.2,12.8c-24.1,0-46.8-5.6-67-15.5l-1.1,0.5c-50.6,19.4-87.5,48-111.4,86
		c-23.9,38.1-33.7,80.7-29.3,128.4c0.9,9.7-6.4,18.3-16.3,19.1c-9.9,0.9-18.6-6.3-19.5-16c-5-55.1,6.5-105.3,34.5-150
		c24.7-39.3,60.9-69.9,108.3-91.7c-29.5-26.8-47.9-65.1-47.9-107.6C121.7,65.7,188.7,0,271.3,0z M456.2,364.5c6.9-6.8,18.1-6.9,25,0
		c6.9,6.8,7,17.9,0,24.7l-30.5,30.2l30.5,30.2c6.9,6.8,6.9,17.9,0,24.7c-6.9,6.8-18.1,6.8-25-0.1l-30.4-30.1l-30.4,30.1
		c-6.2,6.2-15.9,6.8-22.8,1.9l-2.2-1.8c-6.9-6.8-6.9-17.9-0.1-24.7l30.5-30.2l-30.5-30.2c-6.9-6.8-6.9-17.9,0.1-24.7
		c6.9-6.8,18.1-6.8,25,0l30.4,30.1L456.2,364.5z M271.3,35.2c-62.8,0-113.7,49.9-113.7,111.5c0,61.6,50.9,111.5,113.7,111.5
		s113.7-49.9,113.7-111.5C384.9,85.2,334,35.2,271.3,35.2z"/>
</g>
</svg>
